<svg xmlns="http://www.w3.org/2000/svg" width="1200" height="630" viewBox="0 0 1200 630" role="img" aria-label="Taiwan Surf Trip custom quotes for Aussies">
  <defs>
    <linearGradient id="bg" x1="0" y1="0" x2="1" y2="1">
      <stop offset="0" stop-color="#fffdf7"/>
      <stop offset="1" stop-color="#e6fbf7"/>
    </linearGradient>
    <linearGradient id="sea" x1="0" y1="0" x2="1" y2="1">
      <stop offset="0" stop-color="#2c9aa0"/>
      <stop offset="1" stop-color="#12636a"/>
    </linearGradient>
  </defs>
  <rect width="1200" height="630" fill="url(#bg)"/>
  <circle cx="985" cy="120" r="78" fill="#f5b85d" opacity="0.9"/>
  <path d="M0 430 C180 350 320 505 515 425 S860 350 1200 438 V630 H0 Z" fill="#2c9aa0" opacity="0.9"/>
  <path d="M0 505 C190 440 320 560 520 492 S860 438 1200 505 V630 H0 Z" fill="#12636a" opacity="0.95"/>
  <rect x="790" y="335" width="235" height="42" rx="21" fill="#fff8e8" transform="rotate(-9 790 335)"/>
  <path d="M825 355 L990 330" stroke="#f5b85d" stroke-width="5" stroke-linecap="round"/>
  <text x="76" y="128" fill="#12636a" font-family="Inter, Arial, sans-serif" font-size="29" font-weight="800" letter-spacing="4">TAIWAN SURF TRIP</text>
  <text x="72" y="248" fill="#173f42" font-family="Inter, Arial, sans-serif" font-size="76" font-weight="900" letter-spacing="-5">Fill one form.</text>
  <text x="72" y="338" fill="#173f42" font-family="Inter, Arial, sans-serif" font-size="76" font-weight="900" letter-spacing="-5">Get matched.</text>
  <text x="72" y="428" fill="#173f42" font-family="Inter, Arial, sans-serif" font-size="76" font-weight="900" letter-spacing="-5">Receive a custom quote.</text>
  <text x="78" y="535" fill="#5d7776" font-family="Inter, Arial, sans-serif" font-size="32" font-weight="600">Friendly Taiwan surf matching for Aussies.</text>
</svg>
