<svg xmlns="http://www.w3.org/2000/svg" width="1200" height="630" viewBox="0 0 1200 630" role="img" aria-label="Taiwan Surf Trip for Aussies">
  <defs>
    <linearGradient id="bg" x1="0" y1="0" x2="1" y2="1">
      <stop offset="0" stop-color="#fff9ee"/>
      <stop offset="1" stop-color="#e6fbf7"/>
    </linearGradient>
    <linearGradient id="sea" x1="0" y1="0" x2="1" y2="1">
      <stop offset="0" stop-color="#2c9aa0"/>
      <stop offset="1" stop-color="#12636a"/>
    </linearGradient>
  </defs>
  <rect width="1200" height="630" fill="url(#bg)"/>
  <circle cx="965" cy="130" r="76" fill="#f5b85d" opacity="0.9"/>
  <path d="M0 420 C180 340 300 500 500 420 S850 340 1200 430 V630 H0 Z" fill="#2c9aa0" opacity="0.9"/>
  <path d="M0 495 C190 430 320 560 520 485 S850 430 1200 500 V630 H0 Z" fill="#12636a" opacity="0.95"/>
  <rect x="727" y="330" width="250" height="42" rx="21" fill="#fff8e8" transform="rotate(-9 727 330)"/>
  <path d="M762 350 L930 324" stroke="#f5b85d" stroke-width="5" stroke-linecap="round"/>
  <text x="76" y="130" fill="#12636a" font-family="Inter, Arial, sans-serif" font-size="30" font-weight="800" letter-spacing="4">TAIWAN SURF TRIP</text>
  <text x="72" y="260" fill="#173f42" font-family="Inter, Arial, sans-serif" font-size="78" font-weight="900" letter-spacing="-5">A quieter surf trip,</text>
  <text x="72" y="350" fill="#173f42" font-family="Inter, Arial, sans-serif" font-size="78" font-weight="900" letter-spacing="-5">a little off the</text>
  <text x="72" y="440" fill="#173f42" font-family="Inter, Arial, sans-serif" font-size="78" font-weight="900" letter-spacing="-5">usual path.</text>
  <text x="78" y="535" fill="#5d7776" font-family="Inter, Arial, sans-serif" font-size="32" font-weight="600">Friendly Taiwan surf matching for Aussies.</text>
</svg>
